<svg width="209" height="210" viewBox="0 0 209 210" fill="none" xmlns="http://www.w3.org/2000/svg">
<path fill-rule="evenodd" clip-rule="evenodd" d="M137.861 187.049C138.74 189.805 140.206 192.334 142.14 194.461L137.861 187.049ZM178.119 176.777L207.851 23.8199C209.958 12.9772 202.877 2.47881 192.034 0.371196C181.192 -1.73642 170.693 5.34481 168.586 16.1876L147.634 123.976L178.119 176.777Z" fill="#0367A6"/>
<path fill-rule="evenodd" clip-rule="evenodd" d="M16.1876 0.990825C5.34481 3.09844 -1.73642 13.5968 0.371196 24.4395L29.9779 176.753L60.4629 123.951L39.6363 16.8072C37.5287 5.96444 27.0303 -1.11679 16.1876 0.990825ZM64.8885 196.285L70.8055 186.037C69.9081 189.982 67.8286 193.557 64.8885 196.285Z" fill="#0367A6"/>
<rect x="78.9611" y="84.8083" width="37" height="141.105" rx="18.5" transform="rotate(-30 78.9611 84.8083)" stroke="#0367A6" stroke-width="3"/>
<path d="M112.217 145.408L146.858 125.408L172.858 170.442C178.381 180.007 175.103 192.239 165.537 197.762C155.971 203.285 143.74 200.007 138.217 190.442L112.217 145.408Z" fill="#0367A6"/>
<rect x="146.721" y="149.903" width="2" height="33" rx="1" transform="rotate(-30 146.721 149.903)" fill="white"/>
<rect x="-2.04904" y="0.549038" width="37" height="141.105" rx="18.5" transform="matrix(-0.866025 -0.5 -0.5 0.866025 128.116 82.8562)" stroke="#0367A6" stroke-width="3"/>
<path d="M96.3604 144.956L61.7193 124.956L35.7193 169.989C30.1965 179.555 33.474 191.787 43.0398 197.31C52.6057 202.833 64.8375 199.555 70.3603 189.989L96.3604 144.956Z" fill="#0367A6"/>
<rect width="2" height="33" rx="1" transform="matrix(-0.866025 -0.5 -0.5 0.866025 61.8564 149.451)" fill="white"/>
</svg>
